<svg width="1026" height="1067" viewBox="0 0 1026 1067" fill="none" xmlns="http://www.w3.org/2000/svg">
<g clip-path="url(#clip0_484_42676)">
<mask id="mask0_484_42676" style="mask-type:luminance" maskUnits="userSpaceOnUse" x="-1155" y="-1743" width="4553" height="4552">
<path d="M-1154.11 -1742.49H3397.25V2808.86H-1154.11V-1742.49Z" fill="white"/>
</mask>
<g mask="url(#mask0_484_42676)">
<path d="M894.114 634.372C821.543 634.372 762.502 693.408 762.502 765.979C762.502 838.541 821.543 897.582 894.114 897.582C966.681 897.582 1025.72 838.541 1025.72 765.979C1025.72 693.408 966.681 634.372 894.114 634.372Z" fill="#5E50E2"/>
</g>
<mask id="mask1_484_42676" style="mask-type:luminance" maskUnits="userSpaceOnUse" x="-1155" y="-1743" width="4553" height="4552">
<path d="M-1154.11 -1742.49H3397.25V2808.86H-1154.11V-1742.49Z" fill="white"/>
</mask>
<g mask="url(#mask1_484_42676)">
<path d="M484.323 813.777L473.259 716.078C515.5 707.963 551.196 681.287 571.514 644.881L771.877 718.401L781.124 699.144L581.699 622.152C586.815 607.433 589.628 591.644 589.628 575.209C589.628 527.734 566.439 485.593 530.811 459.459L596.15 363.498C608.211 369.492 621.742 372.951 636.102 372.951C685.835 372.951 726.296 332.49 726.296 282.753C726.296 233.025 685.835 192.563 636.102 192.563C586.369 192.563 545.908 233.025 545.908 282.753C545.908 309.21 557.427 332.963 575.633 349.48L509.542 446.533C490.413 437.066 468.899 431.723 446.151 431.723C429.352 431.723 413.222 434.65 398.225 439.984L273.209 231.363C306.01 208.334 327.511 170.248 327.511 127.21C327.511 57.0647 270.451 -0.000207162 200.301 -0.000207162C130.151 -0.000207162 73.0856 57.0647 73.0856 127.21C73.0856 197.36 130.151 254.425 200.301 254.425C218.538 254.425 235.869 250.538 251.562 243.597L375.496 450.402C332.053 475.088 302.67 521.767 302.67 575.209C302.67 581.121 303.07 586.938 303.767 592.664L211.866 599.063C205.316 546.658 160.513 505.965 106.365 505.965C47.7164 505.965 0 553.677 0 612.316C0 670.97 47.7164 718.681 106.365 718.681C161.077 718.681 206.258 677.146 212.075 623.95L308.955 617.204C316.042 640.312 328.826 660.943 345.653 677.478L165.073 882.571C150.063 873.414 132.44 868.125 113.602 868.125C58.94 868.125 14.4779 912.592 14.4779 967.245C14.4779 1021.91 58.94 1066.37 113.602 1066.37C168.259 1066.37 212.721 1021.91 212.721 967.245C212.721 940.364 201.948 915.964 184.516 898.091L364.814 693.312C387.948 709.292 415.966 718.681 446.151 718.681C446.957 718.681 447.749 718.636 448.55 718.622L459.364 814.114C411.593 820.841 374.718 861.963 374.718 911.563C374.718 965.847 418.875 1010 473.154 1010C527.429 1010 571.586 965.847 571.586 911.563C571.586 861.061 533.355 819.344 484.323 813.777Z" fill="#5E50E2"/>
</g>
</g>
<defs>
<clipPath id="clip0_484_42676">
<rect width="1025.72" height="1066.37" fill="white"/>
</clipPath>
</defs>
</svg>
